<svg width="23" height="16" viewBox="0 0 23 16" fill="none" xmlns="http://www.w3.org/2000/svg">
<path d="M4.01732 0H22.0952V12H4.01732V0ZM13.0563 3C13.8554 3 14.6217 3.31607 15.1868 3.87868C15.7518 4.44129 16.0693 5.20435 16.0693 6C16.0693 6.79565 15.7518 7.55871 15.1868 8.12132C14.6217 8.68393 13.8554 9 13.0563 9C12.2572 9 11.4908 8.68393 10.9258 8.12132C10.3607 7.55871 10.0433 6.79565 10.0433 6C10.0433 5.20435 10.3607 4.44129 10.9258 3.87868C11.4908 3.31607 12.2572 3 13.0563 3ZM8.03463 2C8.03463 2.53043 7.823 3.03914 7.44631 3.41421C7.06961 3.78929 6.5587 4 6.02597 4V8C6.5587 8 7.06961 8.21071 7.44631 8.58579C7.823 8.96086 8.03463 9.46957 8.03463 10H18.0779C18.0779 9.46957 18.2895 8.96086 18.6662 8.58579C19.0429 8.21071 19.5538 8 20.0866 8V4C19.5538 4 19.0429 3.78929 18.6662 3.41421C18.2895 3.03914 18.0779 2.53043 18.0779 2H8.03463ZM0 4H2.00866V14H18.0779V16H0V4Z" fill="#26D118"/>
</svg>
