<svg width="14" height="14" viewBox="0 0 14 14" fill="none" xmlns="http://www.w3.org/2000/svg">
<path fill-rule="evenodd" clip-rule="evenodd" d="M2.35798 0.0431677C2.31128 0.0656125 2.24837 0.122857 2.2182 0.170375C2.188 0.217893 2.03232 0.626883 1.87225 1.07925L1.58123 1.90176V3.54736C1.58123 4.68909 1.59053 5.21553 1.61159 5.26661C1.64157 5.33929 1.7392 5.40729 1.81349 5.40729C1.83453 5.40729 1.88625 5.37448 1.92846 5.3344L2.00522 5.2615L2.01301 3.71825L2.02081 2.175H4.12612H6.23143V3.88467C6.23143 5.78495 6.22495 5.7165 6.41456 5.81586C6.58022 5.90267 6.65903 5.85117 7.25133 5.26903C7.72893 4.79962 7.79789 4.74186 7.83788 4.77766C7.8628 4.79998 8.11555 5.04506 8.39954 5.32228C8.72199 5.63705 8.94602 5.83362 8.99619 5.84579C9.11138 5.87374 9.26995 5.78 9.32923 5.64896C9.37305 5.55211 9.37707 5.40194 9.3771 3.85911L9.37715 2.175H11.4834H13.5897V7.1617V12.1484L13.5097 12.2367L13.4298 12.325L11.6291 12.3209C10.6388 12.3187 9.88389 12.3073 9.95159 12.2955C10.1258 12.2651 10.2062 12.2229 10.3351 12.0943C10.4848 11.9449 10.5577 11.7786 10.5744 11.548C10.5867 11.3788 10.5788 11.3371 10.5008 11.1621C10.45 11.0482 10.3738 10.9327 10.3192 10.8867L10.2252 10.8074L10.306 10.7057C10.3885 10.6019 10.4713 10.3538 10.4713 10.2104C10.4713 9.95618 10.2934 9.63105 10.0923 9.51789C10.0375 9.48704 9.32176 9.15983 8.50182 8.79071C7.68188 8.42159 6.99513 8.11 6.97573 8.09828C6.95571 8.08619 7.12153 8.01475 7.35869 7.93331C8.42061 7.56863 8.46664 7.55018 8.57901 7.44396C8.81699 7.219 8.87707 6.83527 8.72126 6.53527C8.63145 6.36239 8.53517 6.27409 8.36341 6.20717C8.19712 6.14238 8.0943 6.15059 7.62422 6.26626C5.76975 6.7225 3.83439 7.09895 3.34322 7.09895H3.12055L3.16164 6.96111C3.21457 6.78358 3.17611 6.62629 3.04979 6.50379C2.94207 6.39936 1.89192 5.91817 1.73168 5.89984C1.60448 5.8853 1.46065 5.95669 1.38518 6.07187C1.35796 6.11341 1.03259 6.96873 0.662156 7.97261C0.0322725 9.67953 -0.0105366 9.80746 0.00158128 9.9466C0.022726 10.1898 0.104898 10.2542 0.779232 10.5556C1.41007 10.8376 1.52348 10.8624 1.68435 10.7541C1.73356 10.721 1.78786 10.6599 1.80501 10.6183C1.82216 10.5767 1.84525 10.5427 1.8563 10.5427C1.91257 10.5427 2.30081 10.7472 2.45656 10.8588C2.64112 10.9911 2.75893 11.1105 3.12373 11.5352C3.36811 11.8197 3.68405 12.0654 4.00346 12.2194L4.2209 12.3243L3.192 12.3246L2.16313 12.325L2.091 12.2454C2.02198 12.1691 2.01889 12.1517 2.01889 11.8395C2.01889 11.6601 2.00609 11.4761 1.99047 11.4307C1.92094 11.2288 1.70788 11.2057 1.62125 11.3907C1.56569 11.5093 1.5673 12.0508 1.62379 12.2609C1.67598 12.4549 1.82454 12.6444 1.99154 12.7301C2.1113 12.7915 2.15804 12.7935 3.71485 12.8021L5.31507 12.811L6.62806 13.4049C7.8971 13.9789 7.94746 13.9988 8.13254 14C8.45458 14.0019 8.68526 13.8216 8.80474 13.4744C8.83371 13.3901 8.85742 13.2806 8.85742 13.2309C8.85742 13.1464 8.86413 13.1406 8.96197 13.1406C9.12098 13.1406 9.30614 13.0583 9.44001 12.9282L9.56065 12.811L11.5273 12.8021L13.4939 12.7932L13.617 12.7224C13.7894 12.6234 13.8606 12.5445 13.935 12.3703L13.9995 12.2193L13.9997 7.03839L14 1.85751L13.711 1.04204C13.5521 0.593533 13.3951 0.194239 13.3622 0.154697C13.2466 0.0157083 13.1656 0 12.5636 0C12.0024 0 12.0005 0.000241667 11.9335 0.0741614C11.8474 0.169287 11.8458 0.300361 11.9297 0.387452C11.9902 0.450195 12.0166 0.453125 12.5246 0.453427L13.0563 0.453759L13.2538 1.01983C13.3624 1.33119 13.4591 1.60971 13.4687 1.6388C13.4852 1.68886 13.3754 1.69167 11.4043 1.69167C10.2593 1.69167 9.32244 1.68656 9.32244 1.68034C9.32244 1.67408 9.26705 1.40731 9.19935 1.0875C9.13165 0.767684 9.07626 0.494117 9.07626 0.479557C9.07626 0.465027 9.43938 0.453125 9.8832 0.453125C10.6537 0.453125 10.6926 0.450406 10.7449 0.392708C10.8263 0.302748 10.8178 0.141073 10.7275 0.0626218L10.6554 0L6.54915 0.00117811C3.16219 0.00214478 2.428 0.00951565 2.35798 0.0431677ZM6.52516 0.490885C6.51799 0.511669 6.45822 0.79031 6.3923 1.1101L6.27246 1.69155L4.18876 1.69161L2.10509 1.69167L2.21497 1.38203C2.27539 1.21172 2.37387 0.933075 2.43377 0.76276L2.54267 0.453125H4.54042C6.12732 0.453125 6.5355 0.460888 6.52516 0.490885ZM8.64849 0.505989C8.70011 0.707056 8.88839 1.66753 8.87835 1.67862C8.87151 1.68617 8.37974 1.6888 7.78553 1.68448L6.70515 1.67656L6.82427 1.1026C6.88979 0.786927 6.94901 0.511669 6.95585 0.490885C6.96542 0.461795 7.1598 0.453125 7.80158 0.453125C8.57182 0.453125 8.63594 0.457112 8.64849 0.505989ZM8.93949 3.70423V5.23344L8.72749 5.02642C8.61091 4.91257 8.4025 4.70781 8.26439 4.57145C8.1263 4.43509 7.974 4.30109 7.92599 4.27369C7.76526 4.18189 7.69564 4.22339 7.20102 4.70603C6.95049 4.95051 6.72216 5.16916 6.69363 5.19196C6.64286 5.2325 6.64174 5.20012 6.64174 3.7042V2.175H7.79061H8.93949V3.70423ZM8.33086 6.72301C8.40863 6.82058 8.4115 6.97429 8.33723 7.06234C8.28135 7.12859 8.19182 7.16236 6.84736 7.6244C6.16622 7.85848 6.09466 7.89899 6.09466 8.05052C6.09466 8.08837 6.11619 8.14836 6.14253 8.18383C6.17349 8.22554 6.84271 8.54167 8.0368 9.07863C10.0726 9.99409 10.0337 9.97177 10.0337 10.2237C10.0337 10.3321 10.018 10.3741 9.94948 10.4498C9.80336 10.6111 9.77204 10.6018 8.43494 9.99895C7.74917 9.68977 7.19161 9.4552 7.14246 9.4552C7.08165 9.4552 7.0392 9.4788 6.99934 9.5348C6.92576 9.63808 6.92745 9.73481 7.00424 9.81643C7.03813 9.85244 7.7303 10.1811 8.54239 10.5467C9.3545 10.9123 10.0365 11.2275 10.0579 11.2471C10.0793 11.2668 10.1137 11.3275 10.1344 11.3821C10.216 11.5976 10.068 11.8413 9.85536 11.8415C9.80995 11.8416 9.10938 11.5426 8.29852 11.1771C7.48767 10.8116 6.79323 10.5125 6.75529 10.5125C6.59228 10.5125 6.49422 10.77 6.61228 10.888C6.64122 10.9169 7.21052 11.1854 7.87741 11.4847C9.2243 12.0891 9.25406 12.1076 9.25406 12.3401C9.25406 12.4513 9.23882 12.4917 9.16691 12.5711C9.01583 12.738 8.98588 12.7291 7.63111 12.1174C6.96416 11.8162 6.39405 11.5698 6.36418 11.5698C6.27558 11.5698 6.21173 11.6229 6.18017 11.7229C6.13922 11.8526 6.19806 11.9713 6.33297 12.0312C7.76282 12.6663 8.27815 12.9109 8.34826 12.9879C8.40947 13.055 8.42723 13.1021 8.42723 13.1972C8.42723 13.405 8.311 13.5394 8.1312 13.5394C8.01467 13.5394 4.12743 11.7931 3.8653 11.623C3.72861 11.5343 3.55641 11.3677 3.26351 11.0407C2.82669 10.5532 2.62471 10.3894 2.23773 10.2087C2.12489 10.1561 2.02814 10.1085 2.0227 10.103C2.01512 10.0953 2.93977 7.55709 2.95963 7.53111C2.96209 7.52791 3.01896 7.53888 3.08603 7.55552C3.42435 7.63947 5.31074 7.30066 7.5581 6.75228C7.859 6.67885 8.14211 6.62487 8.18725 6.63227C8.23238 6.6397 8.29699 6.68051 8.33086 6.72301ZM9.79482 12.3146C9.77631 12.3229 9.73938 12.3234 9.71276 12.3157C9.68615 12.308 9.7013 12.3013 9.74643 12.3007C9.79157 12.3001 9.81334 12.3063 9.79482 12.3146Z" fill="#FB9400"/>
</svg>
