<svg width="23" height="19" viewBox="0 0 23 19" fill="none" xmlns="http://www.w3.org/2000/svg">
<path d="M20.2711 3.67664C18.0696 2.40582 15.2546 3.16093 13.9824 5.36245L10.7756 10.9176C9.84764 12.5218 11.0423 13.0823 12.3743 13.8811L15.46 15.662C16.505 16.2648 17.8397 15.907 18.4424 14.8634L21.7392 9.15431C22.8466 7.23588 22.1895 4.78415 20.2711 3.67664Z" fill="#FB9400"/>
<path d="M16.6422 5.97595L13.5565 4.19493C11.8531 3.24932 10.8884 3.18672 10.1891 4.29833L5.6379 12.1802C4.36709 14.3803 5.12351 17.194 7.32363 18.462C9.24205 19.5695 11.6939 18.9124 12.8014 16.994L17.4396 8.95969C18.045 7.91477 17.6872 6.57866 16.6422 5.97595Z" fill="#FFCC48"/>
<path d="M17.2364 1.92416L15.069 0.672272C12.6716 -0.711357 9.60622 0.109056 8.2225 2.50639L4.09585 9.65348C3.48634 10.708 3.84824 12.0577 4.90275 12.6658L7.32998 14.0672C8.52861 14.7598 10.0606 14.3488 10.7532 13.1502L15.4676 4.98532C16.4445 3.29419 18.6065 2.71459 20.2976 3.6915L17.2364 1.92408V1.92416Z" fill="#5EC23A"/>
<path d="M8.80866 4.55138L6.46573 3.20167C5.42081 2.60026 4.0861 2.95668 3.48338 3.99898L0.672272 8.85624C-0.711357 11.2468 0.109056 14.3053 2.50639 15.685L4.29011 16.7122L6.45352 17.9585L7.39233 18.4986C5.72561 17.3829 5.19631 15.1475 6.21533 13.3869L6.94333 12.1297L9.60867 7.52414C10.2101 6.48463 9.85226 5.1527 8.80866 4.55129V4.55138Z" fill="#4285F4"/>
</svg>
