<svg width="12.45" height="16" viewBox="0 0 13 16" fill="none" xmlns="http://www.w3.org/2000/svg">
<path d="M6.22284 16C5.10001 15.0425 4.05924 13.9928 3.11142 12.8619C1.68906 11.1636 7.81317e-07 8.63433 7.81317e-07 6.22413C-0.000616079 4.99322 0.364044 3.7898 1.04783 2.76616C1.73162 1.74252 2.7038 0.944677 3.84133 0.473603C4.97887 0.00252992 6.23062 -0.120599 7.43818 0.1198C8.64573 0.360199 9.75482 0.953319 10.6251 1.8241C11.2045 2.40075 11.6637 3.08655 11.9762 3.84181C12.2887 4.59708 12.4483 5.4068 12.4457 6.22413C12.4457 8.63433 10.7566 11.1636 9.33426 12.8619C8.38644 13.9928 7.34567 15.0425 6.22284 16ZM6.22284 3.55798C5.51553 3.55798 4.83718 3.83888 4.33704 4.33888C3.83689 4.83888 3.55591 5.51702 3.55591 6.22413C3.55591 6.93123 3.83689 7.60938 4.33704 8.10938C4.83718 8.60938 5.51553 8.89028 6.22284 8.89028C6.93016 8.89028 7.6085 8.60938 8.10865 8.10938C8.60879 7.60938 8.88977 6.93123 8.88977 6.22413C8.88977 5.51702 8.60879 4.83888 8.10865 4.33888C7.6085 3.83888 6.93016 3.55798 6.22284 3.55798Z" fill="#FB9400"/>
</svg>
