<svg width="30" height="30" viewBox="0 0 30 30" fill="none" xmlns="http://www.w3.org/2000/svg">
<path d="M22 22L18.6221 18.6221M18.6221 18.6221C19.1999 18.0444 19.6583 17.3584 19.971 16.6035C20.2837 15.8486 20.4446 15.0394 20.4446 14.2223C20.4446 13.4052 20.2837 12.5961 19.971 11.8411C19.6583 11.0862 19.1999 10.4003 18.6221 9.82247C18.0444 9.24468 17.3584 8.78635 16.6035 8.47365C15.8486 8.16094 15.0394 8 14.2223 8C13.4052 8 12.5961 8.16094 11.8411 8.47365C11.0862 8.78635 10.4003 9.24468 9.82247 9.82247C8.65556 10.9894 8 12.5721 8 14.2223C8 15.8726 8.65556 17.4552 9.82247 18.6221C10.9894 19.7891 12.5721 20.4446 14.2223 20.4446C15.8726 20.4446 17.4552 19.7891 18.6221 18.6221Z" stroke="#144272" stroke-width="1.5" stroke-linecap="round" stroke-linejoin="round"/>
</svg>
